<svg id="visual" viewBox="0 0 1920 1080" width="1920" height="1080" xmlns="http://www.w3.org/2000/svg" xmlns:xlink="http://www.w3.org/1999/xlink" version="1.1"><rect x="0" y="0" width="1920" height="1080" fill="#1d1d1d"></rect><defs><linearGradient id="grad1_0" x1="43.8%" y1="100%" x2="100%" y2="0%"><stop offset="14.444444444444446%" stop-color="#f7770f" stop-opacity="1"></stop><stop offset="85.55555555555554%" stop-color="#f7770f" stop-opacity="1"></stop></linearGradient></defs><defs><linearGradient id="grad1_1" x1="43.8%" y1="100%" x2="100%" y2="0%"><stop offset="14.444444444444446%" stop-color="#f7770f" stop-opacity="1"></stop><stop offset="85.55555555555554%" stop-color="#d56918" stop-opacity="1"></stop></linearGradient></defs><defs><linearGradient id="grad1_2" x1="43.8%" y1="100%" x2="100%" y2="0%"><stop offset="14.444444444444446%" stop-color="#b45c1d" stop-opacity="1"></stop><stop offset="85.55555555555554%" stop-color="#d56918" stop-opacity="1"></stop></linearGradient></defs><defs><linearGradient id="grad1_3" x1="43.8%" y1="100%" x2="100%" y2="0%"><stop offset="14.444444444444446%" stop-color="#b45c1d" stop-opacity="1"></stop><stop offset="85.55555555555554%" stop-color="#944f1f" stop-opacity="1"></stop></linearGradient></defs><defs><linearGradient id="grad1_4" x1="43.8%" y1="100%" x2="100%" y2="0%"><stop offset="14.444444444444446%" stop-color="#754220" stop-opacity="1"></stop><stop offset="85.55555555555554%" stop-color="#944f1f" stop-opacity="1"></stop></linearGradient></defs><defs><linearGradient id="grad1_5" x1="43.8%" y1="100%" x2="100%" y2="0%"><stop offset="14.444444444444446%" stop-color="#754220" stop-opacity="1"></stop><stop offset="85.55555555555554%" stop-color="#573620" stop-opacity="1"></stop></linearGradient></defs><defs><linearGradient id="grad1_6" x1="43.8%" y1="100%" x2="100%" y2="0%"><stop offset="14.444444444444446%" stop-color="#3a291f" stop-opacity="1"></stop><stop offset="85.55555555555554%" stop-color="#573620" stop-opacity="1"></stop></linearGradient></defs><defs><linearGradient id="grad1_7" x1="43.8%" y1="100%" x2="100%" y2="0%"><stop offset="14.444444444444446%" stop-color="#3a291f" stop-opacity="1"></stop><stop offset="85.55555555555554%" stop-color="#1d1d1d" stop-opacity="1"></stop></linearGradient></defs><defs><linearGradient id="grad2_0" x1="0%" y1="100%" x2="56.3%" y2="0%"><stop offset="14.444444444444446%" stop-color="#f7770f" stop-opacity="1"></stop><stop offset="85.55555555555554%" stop-color="#f7770f" stop-opacity="1"></stop></linearGradient></defs><defs><linearGradient id="grad2_1" x1="0%" y1="100%" x2="56.3%" y2="0%"><stop offset="14.444444444444446%" stop-color="#d56918" stop-opacity="1"></stop><stop offset="85.55555555555554%" stop-color="#f7770f" stop-opacity="1"></stop></linearGradient></defs><defs><linearGradient id="grad2_2" x1="0%" y1="100%" x2="56.3%" y2="0%"><stop offset="14.444444444444446%" stop-color="#d56918" stop-opacity="1"></stop><stop offset="85.55555555555554%" stop-color="#b45c1d" stop-opacity="1"></stop></linearGradient></defs><defs><linearGradient id="grad2_3" x1="0%" y1="100%" x2="56.3%" y2="0%"><stop offset="14.444444444444446%" stop-color="#944f1f" stop-opacity="1"></stop><stop offset="85.55555555555554%" stop-color="#b45c1d" stop-opacity="1"></stop></linearGradient></defs><defs><linearGradient id="grad2_4" x1="0%" y1="100%" x2="56.3%" y2="0%"><stop offset="14.444444444444446%" stop-color="#944f1f" stop-opacity="1"></stop><stop offset="85.55555555555554%" stop-color="#754220" stop-opacity="1"></stop></linearGradient></defs><defs><linearGradient id="grad2_5" x1="0%" y1="100%" x2="56.3%" y2="0%"><stop offset="14.444444444444446%" stop-color="#573620" stop-opacity="1"></stop><stop offset="85.55555555555554%" stop-color="#754220" stop-opacity="1"></stop></linearGradient></defs><defs><linearGradient id="grad2_6" x1="0%" y1="100%" x2="56.3%" y2="0%"><stop offset="14.444444444444446%" stop-color="#573620" stop-opacity="1"></stop><stop offset="85.55555555555554%" stop-color="#3a291f" stop-opacity="1"></stop></linearGradient></defs><defs><linearGradient id="grad2_7" x1="0%" y1="100%" x2="56.3%" y2="0%"><stop offset="14.444444444444446%" stop-color="#1d1d1d" stop-opacity="1"></stop><stop offset="85.55555555555554%" stop-color="#3a291f" stop-opacity="1"></stop></linearGradient></defs><g transform="translate(1920, 1080)"><path d="M-648 0C-584 -56.9 -520.1 -113.9 -502.6 -208.2C-485.1 -302.5 -514.2 -434.2 -458.2 -458.2C-402.2 -482.2 -261.2 -398.4 -170.7 -412.1C-80.1 -425.7 -40.1 -536.9 0 -648L0 0Z" fill="#2c231e"></path><path d="M-567 0C-511 -49.8 -455 -99.6 -439.8 -182.2C-424.5 -264.7 -449.9 -380 -400.9 -400.9C-351.9 -421.9 -228.6 -348.6 -149.3 -360.5C-70.1 -372.5 -35.1 -469.8 0 -567L0 0Z" fill="#492f1f"></path><path d="M-486 0C-438 -42.7 -390 -85.4 -376.9 -156.1C-363.8 -226.9 -385.6 -325.7 -343.7 -343.7C-301.7 -361.6 -195.9 -298.8 -128 -309C-60.1 -319.3 -30.1 -402.6 0 -486L0 0Z" fill="#663c20"></path><path d="M-405 0C-365 -35.6 -325 -71.2 -314.1 -130.1C-303.2 -189.1 -321.4 -271.4 -286.4 -286.4C-251.4 -301.4 -163.3 -249 -106.7 -257.5C-50.1 -266.1 -25 -335.5 0 -405L0 0Z" fill="#854920"></path><path d="M-324 0C-292 -28.5 -260 -56.9 -251.3 -104.1C-242.6 -151.3 -257.1 -217.1 -229.1 -229.1C-201.1 -241.1 -130.6 -199.2 -85.3 -206C-40.1 -212.9 -20 -268.4 0 -324L0 0Z" fill="#a4561e"></path><path d="M-243 0C-219 -21.3 -195 -42.7 -188.5 -78.1C-181.9 -113.4 -192.8 -162.8 -171.8 -171.8C-150.8 -180.8 -98 -149.4 -64 -154.5C-30.1 -159.6 -15 -201.3 0 -243L0 0Z" fill="#c5631b"></path><path d="M-162 0C-146 -14.2 -130 -28.5 -125.6 -52C-121.3 -75.6 -128.5 -108.6 -114.6 -114.6C-100.6 -120.5 -65.3 -99.6 -42.7 -103C-20 -106.4 -10 -134.2 0 -162L0 0Z" fill="#e67014"></path><path d="M-81 0C-73 -7.1 -65 -14.2 -62.8 -26C-60.6 -37.8 -64.3 -54.3 -57.3 -57.3C-50.3 -60.3 -32.7 -49.8 -21.3 -51.5C-10 -53.2 -5 -67.1 0 -81L0 0Z" fill="#f7770f"></path></g><g transform="translate(0, 0)"><path d="M648 0C579.6 76.4 511.2 152.8 438.8 181.8C366.5 210.7 290.1 192.2 269.4 269.4C248.7 346.6 283.6 519.6 248 598.7C212.3 677.7 106.2 662.9 0 648L0 0Z" fill="#2c231e"></path><path d="M567 0C507.2 66.9 447.3 133.7 384 159.1C320.7 184.4 253.9 168.2 235.7 235.7C217.6 303.3 248.2 454.7 217 523.8C185.8 593 92.9 580 0 567L0 0Z" fill="#492f1f"></path><path d="M486 0C434.7 57.3 383.4 114.6 329.1 136.3C274.9 158 217.6 144.1 202.1 202.1C186.5 260 212.7 389.7 186 449C159.3 508.3 79.6 497.1 0 486L0 0Z" fill="#663c20"></path><path d="M405 0C362.3 47.8 319.5 95.5 274.3 113.6C229 131.7 181.3 120.1 168.4 168.4C155.4 216.6 177.3 324.8 155 374.2C132.7 423.6 66.4 414.3 0 405L0 0Z" fill="#854920"></path><path d="M324 0C289.8 38.2 255.6 76.4 219.4 90.9C183.2 105.4 145.1 96.1 134.7 134.7C124.3 173.3 141.8 259.8 124 299.3C106.2 338.9 53.1 331.4 0 324L0 0Z" fill="#a4561e"></path><path d="M243 0C217.4 28.7 191.7 57.3 164.6 68.2C137.4 79 108.8 72.1 101 101C93.3 130 106.4 194.9 93 224.5C79.6 254.1 39.8 248.6 0 243L0 0Z" fill="#c5631b"></path><path d="M162 0C144.9 19.1 127.8 38.2 109.7 45.4C91.6 52.7 72.5 48 67.4 67.4C62.2 86.7 70.9 129.9 62 149.7C53.1 169.4 26.5 165.7 0 162L0 0Z" fill="#e67014"></path><path d="M81 0C72.5 9.6 63.9 19.1 54.9 22.7C45.8 26.3 36.3 24 33.7 33.7C31.1 43.3 35.5 65 31 74.8C26.5 84.7 13.3 82.9 0 81L0 0Z" fill="#f7770f"></path></g></svg>